<svg width="94" height="136" viewBox="0 0 94 136" fill="none" xmlns="http://www.w3.org/2000/svg">
<path d="M1.06052 132.342L2.95284 128.832C2.9757 128.6 3.04501 128.375 3.15663 128.171C3.26825 127.966 3.41991 127.786 3.60258 127.641L13.2041 110.012C14.7254 107.261 18.8136 109.751 17.3491 112.44L11.1874 123.854C32.6861 112.233 51.985 96.939 68.2116 78.6631C86.5953 58.292 102.493 24.7316 77.3259 2.58342C76.3001 1.62612 77.8206 0.13147 78.9966 0.974099C99.6043 17.9861 95.4164 46.7059 82.2272 66.8949C65.669 92.0029 40.0543 113.512 13.355 127.726C19.5251 128.181 25.7161 128.285 31.8976 128.035C34.6325 127.943 34.9193 132.01 32.4046 132.713C22.8889 135.317 13.0184 136.386 3.16465 135.882C2.75073 135.879 2.34457 135.769 1.98548 135.562C1.62638 135.356 1.32652 135.061 1.11489 134.705C0.903289 134.349 0.787107 133.945 0.777577 133.531C0.768047 133.117 0.86551 132.707 1.06052 132.342Z" fill="#5CB1FF"/>
</svg>
