<svg width="35" height="31" viewBox="0 0 35 31" fill="none" xmlns="http://www.w3.org/2000/svg">
<path d="M29.1684 20.1878V24.6072C29.1639 25.2691 28.9917 25.9191 28.6678 26.4969C28.3438 27.0748 27.8786 27.5617 27.3153 27.9125C24.4401 29.9223 21.0133 31.0005 17.5012 31.0005C13.989 31.0005 10.5622 29.9223 7.68705 27.9125C7.12375 27.5617 6.65853 27.0748 6.33456 26.4969C6.01059 25.9191 5.83838 25.2691 5.8339 24.6072V20.1878C5.83381 20.1541 5.84253 20.121 5.8592 20.0917C5.87587 20.0624 5.89992 20.0379 5.92897 20.0207C5.95803 20.0035 5.99108 19.9941 6.02488 19.9935C6.05867 19.9929 6.09204 20.0011 6.12169 20.0173L13.2621 23.9097C14.565 24.6084 16.0215 24.9741 17.5012 24.9741C18.9808 24.9741 20.4373 24.6084 21.7403 23.9097L28.8806 20.0173C28.9103 20.0011 28.9436 19.9929 28.9774 19.9935C29.0112 19.9941 29.0443 20.0035 29.0733 20.0207C29.1024 20.0379 29.1264 20.0624 29.1431 20.0917C29.1598 20.121 29.1685 20.1541 29.1684 20.1878ZM32.935 7.567L20.3499 0.725726C19.4764 0.249878 18.4967 0.000488281 17.5012 0.000488281C16.5056 0.000488281 15.526 0.249878 14.6524 0.725726L2.06732 7.567C1.44166 7.90727 0.91951 8.40914 0.55574 9.01991C0.191969 9.63068 0 10.3278 0 11.038C0 11.7482 0.191969 12.4453 0.55574 13.0561C0.91951 13.6669 1.44166 14.1687 2.06732 14.509L14.6524 21.3483C15.526 21.8242 16.5056 22.0736 17.5012 22.0736C18.4967 22.0736 19.4764 21.8242 20.3499 21.3483L32.935 14.509L31.5991 15.2336V23.251C31.5991 23.6363 31.7527 24.006 32.0262 24.2785C32.2998 24.551 32.6707 24.7041 33.0575 24.7041C33.4443 24.7041 33.8152 24.551 34.0887 24.2785C34.3623 24.006 34.5159 23.6363 34.5159 23.251V12.9261C35.0193 12.0065 35.1355 10.9254 34.8391 9.9204C34.5426 8.91544 33.8577 8.06893 32.935 7.567Z" fill="white"/>
</svg>
