<svg width="140" height="140" viewBox="0 0 140 140" fill="none" xmlns="http://www.w3.org/2000/svg">
<path d="M-6.11959e-06 70.0005C-7.0517e-06 59.3384 2.43558 48.8172 7.1209 39.2398C11.8062 29.6623 18.6175 21.2817 27.0349 14.7375C35.4523 8.19326 45.2534 3.65832 55.6903 1.47874C66.1272 -0.70086 76.9241 -0.467493 87.2571 2.16103C97.5901 4.78955 107.186 9.74375 115.313 16.6456C123.44 23.5474 129.882 32.2145 134.149 41.9855C138.417 51.7564 140.395 62.373 139.935 73.0251C139.474 83.6772 136.586 94.0833 131.491 103.449L106.768 90.0009C109.814 84.4005 111.541 78.1783 111.817 71.809C112.092 65.4397 110.909 59.0917 108.357 53.2492C105.806 47.4068 101.954 42.2245 97.0943 38.0976C92.235 33.9707 86.4971 31.0084 80.3187 29.4367C74.1402 27.865 67.6843 27.7255 61.4437 29.0287C55.2031 30.332 49.3426 33.0436 44.3095 36.9567C39.2764 40.8697 35.2037 45.8808 32.4022 51.6075C29.6007 57.3342 28.1443 63.6252 28.1443 70.0005L-6.11959e-06 70.0005Z" fill="#5CB1FF"/>
<path d="M18.8318 117.769C26.4078 125.884 35.8054 132.081 46.2487 135.848C56.692 139.615 67.8815 140.844 78.8935 139.433C89.9054 138.023 100.424 134.013 109.581 127.736C118.738 121.458 126.27 113.093 131.556 103.33L106.807 89.9296C103.646 95.7671 99.142 100.769 93.6668 104.523C88.1917 108.276 81.9022 110.674 75.3178 111.517C68.7333 112.36 62.0426 111.626 55.7982 109.373C49.5537 107.121 43.9346 103.415 39.4046 98.563L18.8318 117.769Z" fill="#DB2843"/>
<path d="M1.45364 84.192C4.05752 96.769 10.0715 108.387 18.8372 117.775L39.4078 98.5665C34.1665 92.9533 30.5705 86.0064 29.0135 78.4861L1.45364 84.192Z" fill="#FFD15C"/>
<path d="M-6.11959e-06 70.0005C-5.70308e-06 74.7649 0.486414 79.5169 1.45169 84.1825L29.0124 78.4804C28.4352 75.6907 28.1443 72.8493 28.1443 70.0005L-6.11959e-06 70.0005Z" fill="#5835DE"/>
</svg>
