<svg width="56" height="56" viewBox="0 0 56 56" fill="none" xmlns="http://www.w3.org/2000/svg">
<path d="M26.1994 31.1583H29.8639C30.3443 31.1583 30.735 30.7675 30.735 30.2871V29.9006C30.735 29.4202 30.3443 29.0294 29.8639 29.0294H26.1994C25.719 29.0294 25.3282 29.4202 25.3282 29.9006V30.2871C25.3282 30.7675 25.7192 31.1583 26.1994 31.1583ZM16.9674 24.8506V20.7432H16.2486C15.4985 20.7432 14.8882 21.3466 14.8882 22.0883V23.5055C14.8882 24.2472 15.4984 24.8506 16.2486 24.8506H16.9674Z" fill="#5CB1FF"/>
<path d="M53.6348 6.31368C53.6348 2.84189 50.8104 0.017395 47.3386 0.017395H8.66141C5.18963 0.017395 2.36523 2.84189 2.36523 6.31368V38.408H53.6348V6.31368ZM44.3932 23.5056C44.3932 26.0565 42.3111 28.1319 39.7516 28.1319H37.3921C36.4861 28.1319 35.7515 27.3973 35.7515 26.4913V19.1026C35.7515 18.1965 36.4861 17.4619 37.3921 17.4619H37.7777C37.5034 12.3708 33.2507 8.3125 28.062 8.3125H28.0009C22.8122 8.3125 18.5594 12.3708 18.2851 17.4618H18.6077C19.5138 17.4618 20.2484 18.1964 20.2484 19.1025V26.4912C20.2484 27.1394 19.8715 27.6982 19.3257 27.9647C19.6868 28.2798 20.1498 28.4534 20.6291 28.4533H22.3076C22.8963 26.8752 24.4185 25.7482 26.1992 25.7482H29.8638C32.1534 25.7482 34.0161 27.611 34.0161 29.9006V30.2871C34.0161 32.5768 32.1534 34.4396 29.8638 34.4396H26.1992C24.4185 34.4396 22.8963 33.3126 22.3076 31.7345H20.6291C18.2864 31.7345 16.2973 30.2006 15.6178 28.0881C13.3557 27.7803 11.6068 25.8432 11.6068 23.5056V22.0883C11.6068 19.9705 13.0425 18.1816 14.9944 17.6349C15.1816 10.6533 20.9441 5.03125 28.001 5.03125H28.0621C35.125 5.03125 40.8915 10.663 41.0691 17.6528C42.9886 18.2202 44.3932 19.9933 44.3932 22.0882V23.5056Z" fill="#5CB1FF"/>
<path d="M39.7516 20.7432H39.0328V24.8506H39.7516C40.5017 24.8506 41.112 24.2472 41.112 23.5055V22.0883C41.112 21.3465 40.5018 20.7432 39.7516 20.7432ZM0 43.3299V46.5477C0 51.7584 4.22406 55.9825 9.4348 55.9825H46.5653C51.776 55.9825 56.0001 51.7584 56.0001 46.5477V43.3299C56.0001 42.4238 55.2655 41.6892 54.3595 41.6892H1.64062C0.734562 41.6892 0 42.4238 0 43.3299ZM31.8552 50.8963H24.1448C23.2387 50.8963 22.5041 50.1618 22.5041 49.2557C22.5041 48.3496 23.2387 47.6151 24.1448 47.6151H31.8552C32.7613 47.6151 33.4959 48.3496 33.4959 49.2557C33.4959 50.1618 32.7613 50.8963 31.8552 50.8963Z" fill="#5CB1FF"/>
</svg>
