<svg width="36" height="36" viewBox="0 0 36 36" fill="none" xmlns="http://www.w3.org/2000/svg">
<path d="M20.1556 27.414C21.6376 24.621 26.5771 24.621 26.5771 24.621C31.7251 24.567 32.4211 21.441 32.8861 19.8615C32.476 23.1332 30.9999 26.1788 28.6859 28.5278C26.3719 30.8768 23.3488 32.3984 20.0836 32.8575C19.5991 31.8375 19.0261 29.5425 20.1556 27.414Z" fill="#5CB1FF"/>
<path d="M7.50902 8.751L6.89102 8.223C6.83999 8.17921 6.79094 8.13317 6.74402 8.085C4.32653 10.8216 2.9947 14.3486 3.00002 18C3.00002 26.19 9.56552 32.85 17.721 32.997C17.1915 31.4145 16.845 28.851 18.168 26.3595C19.383 24.0705 21.828 23.169 23.385 22.785C24.3992 22.5396 25.4364 22.4013 26.4795 22.3725H26.559C28.6305 22.3485 29.4345 21.738 29.805 21.3195C30.264 20.8035 30.444 20.1915 30.6945 19.338L30.7275 19.227C30.8699 18.7428 31.171 18.3205 31.5823 18.0281C31.9937 17.7356 32.4914 17.59 32.9955 17.6145C32.9079 14.0157 31.5241 10.5695 29.0985 7.9095C29.0505 8.175 28.9935 8.424 28.938 8.643C28.683 9.6345 28.257 10.7055 27.732 11.5005C27.2205 12.2805 26.3085 12.975 25.704 13.41C25.2465 13.7385 24.7785 14.01 24.3945 14.2335L24.2565 14.313C23.9085 14.5125 23.6325 14.673 23.3685 14.8455C22.8345 15.198 22.5135 15.5115 22.2975 15.936C22.4295 16.419 22.5225 16.9755 22.5255 17.556C22.5285 18.939 21.8205 20.031 20.976 20.712C20.125 21.3925 19.0656 21.7591 17.976 21.75C13.551 21.702 10.956 18.0915 10.6215 14.373C10.524 13.2915 10.038 12.126 9.35852 11.04C8.83899 10.2035 8.21775 9.43463 7.50902 8.751Z" fill="#5CB1FF"/>
<path d="M12.8625 14.1705C12.582 11.0445 10.1715 8.1315 8.99998 7.0665L8.35498 6.5115C11.0544 4.23866 14.4712 2.9947 18 3C21.321 3 24.39 4.08 26.874 5.904C27.225 6.9705 26.556 9.198 25.854 10.263C25.599 10.6485 25.023 11.1285 24.39 11.583C22.965 12.6075 21.165 13.113 20.25 15C20.0213 15.4751 19.9769 16.0181 20.1255 16.524C20.2155 16.854 20.2755 17.2125 20.2755 17.562C20.2785 18.6945 19.1325 19.512 18 19.5C15.054 19.4685 13.125 17.094 12.8625 14.1705Z" fill="#5CB1FF"/>
</svg>
