<svg width="24" height="32" viewBox="0 0 24 32" fill="none" xmlns="http://www.w3.org/2000/svg">
<path d="M17.9894 16.0007C16.3506 17.3529 14.2665 18.1641 12.0003 18.1641C9.73403 18.1641 7.64993 17.3528 6.01083 16.0005C2.4208 18.1207 0 22.0848 0 26.6156V31.05C0 31.5748 0.416676 32.0005 0.930836 32.0005H23.0695C23.5835 32.0005 24 31.5748 24 31.05V26.6156C24 22.085 21.5794 18.121 17.9894 16.0007Z" fill="white"/>
<path d="M20 8.00054C20 3.58936 16.4113 0.000488281 12 0.000488281C7.58886 0.000488281 4 3.58936 4 8.00054C4 12.4117 7.58886 16.0005 11.9999 16.0005C16.4113 16.0005 19.9999 12.4116 19.9999 8.00049L20 8.00054Z" fill="white"/>
</svg>
