<svg width="12" height="12" viewBox="0 0 12 12" xmlns="http://www.w3.org/2000/svg">
<path d="M3.51104 0.584337L3.48015 0.588199C2.89389 0.661481 2.5717 0.7376 2.31728 0.821057C1.92717 0.922697 1.6391 1.12368 1.38139 1.38139C1.14182 1.62095 1.01671 1.88877 0.916857 2.10252C0.895004 2.1493 0.87436 2.19349 0.853991 2.23423L0.8381 2.26601L0.826863 2.29972C0.818067 2.32611 0.806954 2.35623 0.794349 2.3904C0.717251 2.59938 0.584337 2.95965 0.584337 3.54217V6V8.45783V8.48896L0.588199 8.51985C0.661482 9.10611 0.7376 9.4283 0.821057 9.68272C0.922697 10.0728 1.12368 10.3609 1.38139 10.6186C1.62095 10.8582 1.88877 10.9833 2.10251 11.0831C2.1493 11.105 2.19349 11.1256 2.23423 11.146L2.26601 11.1619L2.29972 11.1731C2.32611 11.1819 2.35623 11.193 2.39039 11.2057C2.59938 11.2828 2.95965 11.4157 3.54217 11.4157H6H8.45783H8.48896L8.51985 11.4118C9.10611 11.3385 9.4283 11.2624 9.68272 11.1789C10.0728 11.0773 10.3609 10.8763 10.6186 10.6186C10.8582 10.379 10.9833 10.1112 11.0831 9.89748C11.105 9.8507 11.1256 9.80651 11.146 9.76578L11.1619 9.73399L11.1731 9.70028C11.1819 9.67389 11.193 9.64377 11.2057 9.60961C11.2828 9.40062 11.4157 9.04035 11.4157 8.45783V6V3.54217V3.51104L11.4118 3.48015C11.3385 2.89389 11.2624 2.57171 11.1789 2.31728C11.0773 1.92717 10.8763 1.6391 10.6186 1.38139C10.379 1.14182 10.1112 1.01671 9.89748 0.916857C9.8507 0.895004 9.80651 0.87436 9.76578 0.853992L9.73399 0.8381L9.70028 0.826863C9.67389 0.818067 9.64377 0.806954 9.6096 0.794349C9.40062 0.71725 9.04035 0.584337 8.45783 0.584337H6H3.54217H3.51104ZM2.5791 1.78628L2.59773 1.78162L2.61595 1.77555C2.7892 1.7178 3.03798 1.65254 3.57358 1.58434H6H8.45783C8.64487 1.58434 8.78958 1.601 8.91115 1.6262C8.36547 1.74896 7.95783 2.23652 7.95783 2.81928C7.95783 2.86827 7.96071 2.91659 7.96632 2.96408C7.40267 2.60116 6.72848 2.39157 6 2.39157C3.98892 2.39157 2.39157 3.98892 2.39157 6C2.39157 8.01108 3.98892 9.60843 6 9.60843C8.01108 9.60843 9.60843 8.01108 9.60843 6C9.60843 5.27152 9.39884 4.59733 9.03591 4.03368C9.0834 4.03928 9.13173 4.04217 9.18072 4.04217C9.73716 4.04217 10.2068 3.67052 10.355 3.16191C10.3748 3.27696 10.3951 3.41226 10.4157 3.57358V6V8.45783C10.4157 8.85467 10.3407 9.06096 10.2683 9.25995C10.2575 9.28966 10.2468 9.31921 10.2363 9.3492C10.1994 9.42378 10.1695 9.48644 10.1438 9.54038C10.057 9.72276 10.0176 9.80537 9.91151 9.91151C9.73971 10.0833 9.59929 10.1691 9.4209 10.2137L9.40227 10.2184L9.38406 10.2245C9.2108 10.2822 8.96202 10.3475 8.42642 10.4157H6H3.54217C3.14534 10.4157 2.93904 10.3407 2.74005 10.2683C2.71034 10.2575 2.6808 10.2468 2.65081 10.2363C2.57623 10.1994 2.51357 10.1695 2.45963 10.1439C2.27724 10.057 2.19464 10.0176 2.08849 9.91151C1.9167 9.73971 1.83087 9.59928 1.78628 9.4209L1.78162 9.40227L1.77555 9.38406C1.7178 9.2108 1.65254 8.96202 1.58434 8.42642V6V3.54217C1.58434 3.14534 1.65935 2.93904 1.7317 2.74005C1.7425 2.71034 1.75324 2.6808 1.76367 2.6508C1.80062 2.57623 1.83046 2.51356 1.85615 2.45963C1.94301 2.27724 1.98235 2.19464 2.08849 2.08849C2.26029 1.9167 2.40072 1.83087 2.5791 1.78628ZM3.54217 0.5H6H8.43C9.05039 0.569645 9.41449 0.63541 9.69965 0.746191C10.1165 0.95473 10.3393 1.07046 10.6344 1.3656C10.9448 1.67605 11.1255 1.97928 11.2466 2.28208C11.3776 2.60968 11.5 2.97763 11.5 3.54217V6V8.43C11.4304 9.0504 11.3646 9.4145 11.2538 9.69965C11.0453 10.1165 10.9295 10.3393 10.6344 10.6344C10.3239 10.9448 10.0207 11.1255 9.71792 11.2466C9.39032 11.3776 9.02237 11.5 8.45783 11.5H6H3.57C2.94961 11.4304 2.58551 11.3646 2.30035 11.2538C1.88348 11.0453 1.66074 10.9295 1.3656 10.6344C1.05515 10.3239 0.874515 10.0207 0.753395 9.71792C0.622354 9.39032 0.5 9.02237 0.5 8.45783V6V3.57C0.569645 2.94961 0.63541 2.58551 0.746192 2.30035C0.95473 1.88348 1.07046 1.66074 1.3656 1.3656C1.67605 1.05515 1.97928 0.874515 2.28208 0.753395C2.60968 0.622354 2.97763 0.5 3.54217 0.5ZM6 7.5241C5.18009 7.5241 4.4759 6.86892 4.4759 6C4.4759 5.18009 5.13108 4.4759 6 4.4759C6.81991 4.4759 7.5241 5.13108 7.5241 6C7.5241 6.8082 6.8082 7.5241 6 7.5241Z" fill="#5CB1FF" stroke="#5CB1FF"/>
</svg>
