<svg width="26" height="27" viewBox="0 0 26 27" fill="none" xmlns="http://www.w3.org/2000/svg">
<path d="M0.769718 11.863C0.344609 11.863 0 12.2206 0 12.6617V24.3929C0 24.834 0.34466 25.1916 0.769718 25.1916H5.40718V11.863H0.769718ZM26 16.2736C26 15.2597 25.475 14.3706 24.6923 13.8837C25.0026 13.4193 25.1687 12.8675 25.168 12.3024C25.168 10.7672 23.9643 9.5181 22.4848 9.5181H16.8205C16.9941 8.70177 17.2315 7.4768 17.3969 6.19446C17.8271 2.85738 17.5331 1.00666 16.4716 0.370213C15.8098 -0.026508 15.0963 -0.106981 14.4625 0.143402C13.9728 0.336937 13.3116 0.812759 12.9347 1.98056L11.446 6.02534C10.6913 7.95948 8.38004 9.99002 6.94667 11.1128V25.545C9.60323 26.5109 12.3753 27.0005 15.2035 27.0005H21.3753C22.8549 27.0005 24.0586 25.7514 24.0586 24.2162C24.0592 23.6979 23.9196 23.1899 23.6556 22.7499C24.5501 22.2979 25.1679 21.3448 25.1679 20.2449C25.1686 19.6798 25.0025 19.128 24.6922 18.6637C25.475 18.1767 26 17.2876 26 16.2736Z" fill="white"/>
</svg>
