<svg width="56" height="50" viewBox="0 0 56 50" fill="none" xmlns="http://www.w3.org/2000/svg">
<path d="M55.0956 13.7006L28.7348 0.498388C28.5067 0.384135 28.2551 0.324646 28 0.324646C27.7449 0.324646 27.4933 0.384135 27.2652 0.498388L0.904395 13.7006C-0.30059 14.3041 -0.30234 16.0301 0.904395 16.6344L27.2652 29.8366C27.4933 29.9508 27.7449 30.0103 28 30.0103C28.2551 30.0103 28.5067 29.9508 28.7348 29.8366L36.3129 26.0413V24.382L25.5511 18.2906C24.7625 17.8443 24.485 16.8433 24.9315 16.0547C25.3779 15.2662 26.3791 14.9888 27.1674 15.4351L38.7618 21.9976C39.0145 22.1406 39.2248 22.3481 39.371 22.599C39.5173 22.8498 39.5944 23.135 39.5944 23.4254V24.3979L55.0956 16.6345C56.3006 16.031 56.3023 14.305 55.0956 13.7006Z" fill="white"/>
<path d="M36.3129 33.2954V29.711L30.2042 32.7704C28.8418 33.4529 27.2058 33.4768 25.7956 32.7704L9.95215 24.8356V33.7067C9.95215 34.0028 10.0322 34.2933 10.184 34.5476C14.1174 41.1375 26.196 42.3701 33.9907 41.0291C31.8483 38.3339 33.0822 34.3559 36.3129 33.2954ZM39.5944 33.3733C41.3785 34.0546 42.6684 35.7445 42.7606 37.7426C44.0161 36.86 45.0669 35.8024 45.816 34.5475C45.9678 34.2932 46.0479 34.0027 46.0479 33.7066V24.8355L39.5944 28.0675V33.3733ZM41.1979 41.5703C39.3069 43.3338 36.3857 43.3375 34.4906 41.5703L31.9644 47.3805C31.494 48.4622 32.2879 49.6753 33.4691 49.6753H42.2195C43.399 49.6753 44.1953 48.4637 43.7242 47.3805L41.1979 41.5703Z" fill="white"/>
<path d="M37.8442 39.6129C38.7503 39.6129 39.4849 38.8783 39.4849 37.9722C39.4849 37.0661 38.7503 36.3316 37.8442 36.3316C36.9381 36.3316 36.2036 37.0661 36.2036 37.9722C36.2036 38.8783 36.9381 39.6129 37.8442 39.6129Z" fill="white"/>
</svg>
