<svg width="56" height="57" viewBox="0 0 56 57" fill="none" xmlns="http://www.w3.org/2000/svg">
<path d="M15.5823 45.3943V50.8986L18.3535 48.1275C17.2307 47.4431 16.2821 46.5075 15.5823 45.3943ZM12.3011 54.8594V41.0139C5.37425 41.8236 0 47.702 0 54.8594C0 55.7654 0.734562 56.5 1.64062 56.5H13.9414C13.0388 56.5 12.3011 55.7677 12.3011 54.8594ZM29.8739 45.395C29.1734 46.5076 28.2245 47.4425 27.1016 48.1264L29.8739 50.8987V45.395ZM22.7281 48.3931L15.1017 56.0195C14.9494 56.1719 14.7685 56.2928 14.5694 56.3753C14.3703 56.4578 14.1569 56.5001 13.9414 56.5L31.515 56.5001C31.2995 56.5002 31.0861 56.4578 30.887 56.3753C30.6879 56.2928 30.507 56.1719 30.3546 56.0195L22.7281 48.3931ZM22.7281 46.073C25.5707 46.073 27.8834 43.7602 27.8834 40.9177V38.6938H17.573V40.9177C17.573 43.7602 19.8856 46.073 22.7281 46.073ZM41.9417 20.5922C41.9417 18.0649 40.3926 15.9067 38.1938 15.007V26.1775C40.3945 25.2772 41.9417 23.1166 41.9417 20.5922ZM7.2625 26.1773V15.0068C2.29338 17.0257 2.29819 24.1626 7.2625 26.1773ZM28 14.5583H34.9125V9.16983C34.9125 4.38927 31.0233 0.5 26.2428 0.5H20.8542V7.4125C20.8542 11.3583 24.0466 14.5583 28 14.5583ZM17.573 9.16983V0.657719C13.5744 1.42695 10.5437 4.95025 10.5437 9.16983V14.5584H12.1844C15.1557 14.5583 17.573 12.1411 17.573 9.16983ZM17.4563 35.4125H28C31.8173 35.4125 34.9125 32.324 34.9125 28.5V17.8395H28C24.566 17.8395 21.5201 16.1827 19.6202 13.6222C18.103 16.1465 15.3381 17.8395 12.1845 17.8395H10.5439V28.5C10.5437 32.3184 13.6327 35.4125 17.4563 35.4125ZM33.1553 51.873V54.8594C33.1553 55.7688 32.4163 56.5001 31.515 56.5001L36.6856 56.5C35.2028 55.234 33.9924 53.6579 33.1553 51.873ZM47.2136 38.5843V37.2864C47.2136 37.2473 47.2105 37.2085 47.2078 37.1697H48.2089C51.5464 37.1697 54.2428 34.4695 54.2428 31.1358V28.5C54.2428 27.5939 53.5082 26.8594 52.6022 26.8594H49.9662C46.6293 26.8594 43.9323 29.5591 43.9323 32.8933V33.3257L43.2184 32.6118C42.5778 31.9711 41.539 31.9711 40.8983 32.6118C40.2575 33.2526 40.2575 34.2913 40.8983 34.932L43.9323 37.9661V38.5845C39.3762 37.8901 35.148 41.3065 35.1459 46.0685C35.6719 59.892 55.4794 59.8814 56 46.0678C55.9979 41.3123 51.7746 37.888 47.2136 38.5843Z" fill="white"/>
</svg>
