<svg width="24" height="16" viewBox="0 0 24 16" fill="none" xmlns="http://www.w3.org/2000/svg">
<path d="M12 0.84668C7.41454 0.84668 3.25621 3.35542 0.187788 7.43029C-0.0625959 7.76414 -0.0625959 8.23054 0.187788 8.56438C3.25621 12.6442 7.41454 15.1529 12 15.1529C16.5855 15.1529 20.7438 12.6442 23.8122 8.56929C24.0626 8.23545 24.0626 7.76905 23.8122 7.4352C20.7438 3.35543 16.5855 0.84668 12 0.84668ZM12.3289 13.0369C9.28506 13.2284 6.7714 10.7196 6.96287 7.67086C7.11998 5.1572 9.15741 3.11977 11.6711 2.96267C14.7149 2.7712 17.2286 5.27994 17.0371 8.32873C16.8751 10.8375 14.8377 12.8749 12.3289 13.0369ZM12.1767 10.7098C10.537 10.8129 9.18196 9.46282 9.28997 7.82305C9.37343 6.46804 10.4732 5.37322 11.8282 5.28485C13.4679 5.18175 14.823 6.53186 14.7149 8.17163C14.6266 9.53155 13.5268 10.6264 12.1767 10.7098Z" fill="white" fill-opacity="0.5"/>
</svg>
