<svg width="14" height="10" viewBox="0 0 14 10" fill="none" xmlns="http://www.w3.org/2000/svg">
<path d="M7.5899 9.19981C3.07997 9.19981 0.507574 6.04665 0.400391 0.799805H2.65948C2.73368 4.65086 4.39914 6.28209 5.71832 6.61842V0.799805H7.84549V4.12113C9.14817 3.97818 10.5168 2.46467 10.9785 0.799805H13.1057C12.9317 1.66325 12.5849 2.4808 12.087 3.20131C11.589 3.92181 10.9506 4.52979 10.2118 4.98719C11.0365 5.40514 11.765 5.9967 12.3491 6.72285C12.9332 7.449 13.3597 8.29322 13.6004 9.19981H11.2589C11.0428 8.41237 10.6036 7.70749 9.99642 7.1735C9.38922 6.63951 8.64099 6.30017 7.84549 6.198V9.19981H7.5899Z" fill="#5CB1FF"/>
</svg>
